
        <svg xmlns="http://www.w3.org/2000/svg" xmlns:xlink="http://www.w3.org/1999/xlink" version="1.1" width="3168.5393258426966" 
        height="758.4269662921349" viewBox="0 0 3168.5393258426966 758.4269662921349">
			
			<g transform="scale(8.426966292134832) translate(10, 10)">
				<defs id="SvgjsDefs9009"><linearGradient id="SvgjsLinearGradient9018"><stop id="SvgjsStop9019" stop-color="#b88746" offset="0"></stop><stop id="SvgjsStop9020" stop-color="#fdf5a6" offset="1"></stop></linearGradient></defs><g id="SvgjsG9010" featureKey="symbolFeature-0" transform="matrix(26.02811050415039,0,0,26.02811050415039,-15.070275768754085,-30.05986465867172)" fill="url(#SvgjsLinearGradient9018)"><g xmlns="http://www.w3.org/2000/svg"><polygon fill="url(#SvgjsLinearGradient9018)" points="3.117,1.788 2.511,1.508 2.511,1.347 1.895,1.598 1.895,1.821 2.506,1.571 3.117,1.821  "></polygon><polygon fill="url(#SvgjsLinearGradient9018)" points="3.117,2.154 2.511,1.92 2.511,1.758 1.895,1.967 1.895,2.188 2.506,1.982 3.117,2.188  "></polygon><polygon fill="url(#SvgjsLinearGradient9018)" points="3.117,2.521 2.511,2.327 2.511,2.17 1.895,2.333 1.895,2.554 2.506,2.393 3.117,2.554  "></polygon><polygon fill="url(#SvgjsLinearGradient9018)" points="3.117,2.89 2.511,2.757 2.511,2.599 1.895,2.7 1.895,2.921 2.506,2.819 3.117,2.921  "></polygon><polygon fill="url(#SvgjsLinearGradient9018)" points="1.895,3.066 1.895,3.287 2.506,3.236 3.117,3.287 3.117,3.257 2.511,3.171 2.511,3.013  "></polygon><polygon fill="url(#SvgjsLinearGradient9018)" points="3.117,3.653 3.117,3.623 2.511,3.587 2.511,3.434 1.895,3.434 1.895,3.653 2.506,3.653  "></polygon><polygon fill="url(#SvgjsLinearGradient9018)" points="3.818,1.758 3.2,1.967 3.2,2.188 3.811,1.982 4.421,2.188 4.421,2.154 3.818,1.92  "></polygon><polygon fill="url(#SvgjsLinearGradient9018)" points="3.818,2.17 3.2,2.333 3.2,2.554 3.811,2.393 4.421,2.554 4.421,2.521 3.818,2.327  "></polygon><polygon fill="url(#SvgjsLinearGradient9018)" points="3.818,2.599 3.2,2.7 3.2,2.921 3.811,2.819 4.421,2.921 4.421,2.89 3.818,2.757  "></polygon><polygon fill="url(#SvgjsLinearGradient9018)" points="3.818,3.013 3.2,3.066 3.2,3.287 3.811,3.236 4.421,3.287 4.421,3.257 3.818,3.171  "></polygon><polygon fill="url(#SvgjsLinearGradient9018)" points="3.818,3.434 3.2,3.434 3.2,3.653 3.811,3.653 4.421,3.653 4.421,3.623 3.818,3.587  "></polygon><polygon fill="url(#SvgjsLinearGradient9018)" points="1.195,2.17 0.579,2.333 0.579,2.554 1.189,2.393 1.8,2.554 1.8,2.521 1.195,2.327  "></polygon><polygon fill="url(#SvgjsLinearGradient9018)" points="1.195,2.599 0.579,2.7 0.579,2.921 1.189,2.819 1.8,2.921 1.8,2.89 1.195,2.757  "></polygon><polygon fill="url(#SvgjsLinearGradient9018)" points="1.195,3.013 0.579,3.066 0.579,3.287 1.189,3.236 1.8,3.287 1.8,3.257 1.195,3.171  "></polygon><polygon fill="url(#SvgjsLinearGradient9018)" points="1.195,3.434 0.579,3.434 0.579,3.653 1.189,3.653 1.8,3.653 1.8,3.623 1.195,3.587  "></polygon></g></g><g id="SvgjsG9011" featureKey="textGroupContainer" transform="matrix(1,0,0,1,355,0)" fill="#ffffff"><rect xmlns="http://www.w3.org/2000/svg" y="0" height="1" width="1" opacity="0"></rect><rect xmlns="http://www.w3.org/2000/svg" y="0" x="-235" width="3" height="70"></rect></g><g id="SvgjsG9012" featureKey="nameFeature-0" transform="matrix(1.2801642417907715,0,0,1.2801642417907715,137.6242715495914,10.711704534156043)" fill="#ffffff"><path d="M11.27 20 l-1.0254 -2.9102 l-5.9277 0 l-1.0254 2.9102 l-2.998 0 l5.1953 -14.111 l3.584 0 l5.1953 14.111 l-2.998 0 z M5.1758 14.6387 l4.209 0 l-2.0996 -5.9863 z M18.535146875 20.19531 c-1.0938 0 -2.4219 -0.29297 -3.7305 -0.97656 l1.2402 -2.4121 c0.69336 0.48828 1.3672 0.75195 2.1387 0.75195 c1.1523 0 1.7383 -0.69336 1.7383 -2.3438 l0 -9.3262 l2.9297 0 l0 9.873 c0 2.8906 -1.7578 4.4336 -4.3164 4.4336 z M26.279325 20 l0 -14.111 l2.9297 0 l0 14.111 l-2.9297 0 z M42.295390624999996 20 l-1.0254 -2.9102 l-5.9277 0 l-1.0254 2.9102 l-2.998 0 l5.1953 -14.111 l3.584 0 l5.1953 14.111 l-2.998 0 z M36.201190625 14.6387 l4.209 0 l-2.0996 -5.9863 z M50.3418375 17.4121 l4.4238 0 l0 2.5879 l-7.3535 0 l0 -14.111 l2.9297 0 l0 11.523 z M65.18578125 8.467 l-5.2344 0 l0 3.2031 l4.6387 0 l0 2.5488 l-4.6387 0 l0 3.1934 l5.2344 0 l0 2.5879 l-8.1836 0 l0 -14.111 l8.1836 0 l0 2.5781 z M78.085965625 20.19531 c-3.0273 0 -5.3906 -1.4551 -5.8203 -4.1016 l3.0273 -0.69336 c0.19531 1.582 1.3574 2.4023 2.9102 2.4023 c1.1914 0 2.1387 -0.52734 2.1289 -1.7188 c-0.0097656 -1.3281 -1.5723 -1.748 -3.291 -2.2754 c-2.0703 -0.64453 -4.2871 -1.4063 -4.2871 -4.0039 c0 -2.627 2.1484 -4.1113 4.9805 -4.1113 c2.4805 0 4.9805 1.0059 5.5469 3.7109 l-2.832 0.70313 c-0.26367 -1.4063 -1.2109 -2.0215 -2.5391 -2.0215 c-1.1816 0 -2.1875 0.48828 -2.1875 1.6504 c0 1.084 1.3867 1.4453 2.9883 1.9238 c2.1289 0.64453 4.6484 1.4648 4.6484 4.2773 c0 2.998 -2.5098 4.2578 -5.2734 4.2578 z M92.31448125 20.19531 c-4.1504 0 -7.2168 -2.8223 -7.2168 -7.2559 s3.0664 -7.2461 7.2168 -7.2461 c3.1445 0 5.6641 1.6113 6.6699 4.2871 l-2.7344 0.99609 c-0.625 -1.6406 -2.1191 -2.5879 -3.9355 -2.5879 c-2.4316 0 -4.2969 1.6992 -4.2969 4.5508 s1.8652 4.5605 4.2969 4.5605 c1.8164 0 3.3105 -0.95703 3.9355 -2.5977 l2.7344 0.99609 c-1.0059 2.6758 -3.5254 4.2969 -6.6699 4.2969 z M110.283546875 5.888999999999999 l2.9297 0 l0 14.111 l-2.9297 0 l0 -5.8008 l-5.9668 0 l0 5.8008 l-2.9297 0 l0 -14.111 l2.9297 0 l0 5.7617 l5.9668 0 l0 -5.7617 z M123.1152625 20.19531 c-4.1504 0 -7.2168 -2.832 -7.2168 -7.2559 c0 -4.4336 3.0664 -7.2461 7.2168 -7.2461 c4.1406 0 7.207 2.8125 7.207 7.2461 c0 4.4238 -3.0664 7.2559 -7.207 7.2559 z M123.1152625 17.5098 c2.4316 0 4.2969 -1.709 4.2969 -4.5703 c0 -2.8516 -1.8652 -4.5508 -4.2969 -4.5508 s-4.2969 1.6992 -4.2969 4.5508 c0 2.8613 1.8652 4.5703 4.2969 4.5703 z M139.26760625 20.19531 c-4.1504 0 -7.2168 -2.832 -7.2168 -7.2559 c0 -4.4336 3.0664 -7.2461 7.2168 -7.2461 c4.1406 0 7.207 2.8125 7.207 7.2461 c0 4.4238 -3.0664 7.2559 -7.207 7.2559 z M139.26760625 17.5098 c2.4316 0 4.2969 -1.709 4.2969 -4.5703 c0 -2.8516 -1.8652 -4.5508 -4.2969 -4.5508 s-4.2969 1.6992 -4.2969 4.5508 c0 2.8613 1.8652 4.5703 4.2969 4.5703 z M152.09965 17.4121 l4.4238 0 l0 2.5879 l-7.3535 0 l0 -14.111 l2.9297 0 l0 11.523 z"></path></g><g id="SvgjsG9013" featureKey="sloganFeature-0" transform="matrix(0.4131850004196167,0,0,0.4131850004196167,137.7134975607696,44.65560062177504)" fill="#ffffff"><path d="M6.5137 20.19531 c-3.0273 0 -5.3906 -1.4551 -5.8203 -4.1016 l3.0273 -0.69336 c0.19531 1.582 1.3574 2.4023 2.9102 2.4023 c1.1914 0 2.1387 -0.52734 2.1289 -1.7188 c-0.0097656 -1.3281 -1.5723 -1.748 -3.291 -2.2754 c-2.0703 -0.64453 -4.2871 -1.4063 -4.2871 -4.0039 c0 -2.627 2.1484 -4.1113 4.9805 -4.1113 c2.4805 0 4.9805 1.0059 5.5469 3.7109 l-2.832 0.70313 c-0.26367 -1.4063 -1.2109 -2.0215 -2.5391 -2.0215 c-1.1816 0 -2.1875 0.48828 -2.1875 1.6504 c0 1.084 1.3867 1.4453 2.9883 1.9238 c2.1289 0.64453 4.6484 1.4648 4.6484 4.2773 c0 2.998 -2.5098 4.2578 -5.2734 4.2578 z M14.492215625 20 l0 -14.111 l2.9297 0 l0 14.111 l-2.9297 0 z M30.70328125 5.888999999999999 l2.9199 0 l0 14.111 l-3.3887 0 l-6.25 -10.088 l0 10.088 l-2.9199 0 l0 -14.111 l3.3496 0 l6.2891 10.029 l0 -10.029 z M43.52541875 20.19531 c-4.1504 0 -7.2168 -2.8223 -7.2168 -7.2559 s3.0664 -7.2461 7.2168 -7.2461 c3.1445 0 5.6641 1.6113 6.6699 4.2871 l-2.7344 0.99609 c-0.625 -1.6406 -2.1191 -2.5879 -3.9355 -2.5879 c-2.4316 0 -4.2969 1.6992 -4.2969 4.5508 s1.8652 4.5605 4.2969 4.5605 c1.8164 0 3.3105 -0.95703 3.9355 -2.5977 l2.7344 0.99609 c-1.0059 2.6758 -3.5254 4.2969 -6.6699 4.2969 z M60.781484375 8.467 l-5.2344 0 l0 3.2031 l4.6387 0 l0 2.5488 l-4.6387 0 l0 3.1934 l5.2344 0 l0 2.5879 l-8.1836 0 l0 -14.111 l8.1836 0 l0 2.5781 z M72.75386875 5.888999999999999 l2.6758 0 l0 14.111 l-2.8027 0 l0 -11.221 l-3.2422 3.0176 l0 -2.8906 z M85.107428125 5.702999999999999 c2.9199 0 5.1855 2.1094 5.1855 4.9121 c0 1.1035 -0.36133 2.2168 -1.2598 3.4375 l-4.3945 5.9473 l-3.2031 0 l3.6523 -4.7754 c-0.21484 0.029297 -0.41992 0.039063 -0.63477 0.039063 c-2.3926 0 -4.5605 -1.8164 -4.5703 -4.6387 c-0.019531 -2.8906 2.4219 -4.9219 5.2246 -4.9219 z M87.646528125 10.7227 c0.029297 -1.4746 -0.92773 -2.4902 -2.4609 -2.4902 c-1.4844 0 -2.5488 1.0059 -2.5586 2.4609 c-0.019531 1.4648 0.99609 2.5293 2.5293 2.5293 c1.4941 0 2.4707 -1.0938 2.4902 -2.5 z M92.1386875 5.888999999999999 l9.9316 0 l0 2.168 l-6.377 11.943 l-3.1836 0 l6.3965 -11.611 l-6.7676 0 l0 -2.5 z M107.910146875 17.4902 l6.0156 0 l0 2.5098 l-9.9512 0 l0 -2.1191 l5.6152 -5.7324 c0.9082 -0.91797 1.2207 -1.7188 1.2207 -2.4316 c0 -1.1035 -0.69336 -1.7871 -1.9238 -1.7871 c-1.1621 0 -2.002 0.5957 -2.002 2.2754 l0 1.0449 l-2.8027 -0.2832 l0 -0.70313 c0 -2.9785 1.8945 -4.5898 4.7852 -4.5898 c2.7148 0 4.7168 1.4746 4.7168 4.0625 c0 1.4551 -0.625 2.5391 -1.8555 3.8184 z"></path></g>
			</g>
		</svg>
	